# Blender v2.93.4 OBJ File: 'CAR.blend'
# www.blender.org
mtllib CAR.mtl
o Plane
v 0.648778 -0.728499 0.201697
v 0.648778 1.146227 0.182798
v 0.577909 -0.761572 1.122054
v 0.577909 0.390291 1.136227
v 0.648778 -1.952171 0.362929
v 0.648778 -2.051388 0.689629
v 0.648778 2.030321 0.256444
v 0.673819 2.139952 0.419511
v 0.648778 0.841193 0.821125
v 0.648778 -1.382857 0.225618
v 0.685630 2.160180 0.625988
v 0.648778 1.602108 0.756839
v 0.731459 -0.469434 0.716995
v 0.648778 0.208864 0.192248
v 0.694712 0.725685 0.772653
v 0.577909 -0.185641 1.129140
v 0.648778 -1.406480 0.917653
v 0.648778 -1.055678 0.213657
v 0.648778 0.615742 0.990488
v 0.731459 -0.070675 0.720145
v 0.731459 -1.060403 0.807699
v 0.789256 -1.717122 0.524555
v 0.316166 1.146227 0.182798
v 0.316166 -0.728499 0.201697
v 0.316166 -2.074066 0.695298
v 0.316166 -0.761572 1.145676
v 0.316166 0.390291 1.159850
v 0.316166 0.841193 0.826795
v 0.316166 -1.382857 0.225618
v 0.316166 -0.185641 1.152763
v 0.316166 -1.055678 0.213657
v 0.316166 0.615742 0.993323
v 0.316166 -1.406480 0.920487
v 0.316166 0.208864 0.192248
v 0.847605 -0.598967 0.526278
v 0.648778 0.677545 0.187523
v 0.648778 -2.001780 0.526279
v 0.648778 -1.728934 0.803641
v 0.648778 -0.892089 0.207677
v 0.648778 2.107815 0.341915
v 0.648778 1.588274 0.219621
v 0.648778 1.221651 0.788982
v 0.648778 -1.667514 0.294274
v 0.693504 2.150066 0.520781
v 0.648778 1.903822 0.693382
v 0.847605 -0.399587 0.527853
v 0.847605 -1.221630 0.583591
v 0.806265 -1.549990 0.408552
v 0.806265 1.374167 0.536750
v 0.806265 1.816214 0.573573
v 0.727522 1.893708 0.584238
v 0.648778 -0.259818 0.196972
v 0.847605 0.911965 0.539271
v 0.648778 -1.219268 0.219638
v 0.648778 0.728468 0.905807
v 0.743900 -1.923942 0.640558
v 0.806265 1.069968 0.409312
v 0.796422 -1.388763 0.616913
v 0.690118 -1.233441 0.862676
v 0.755082 -1.561801 0.671889
v 0.731459 -0.764918 0.762347
v 0.847605 -1.058040 0.577610
v 0.847605 -0.762556 0.532258
v 0.731459 0.303514 0.741012
v 0.847605 0.069094 0.523128
v 0.847605 0.443284 0.543995
v 0.731459 -0.270054 0.718570
v 0.829888 1.145809 0.585367
v 0.789256 -1.775885 0.500882
v -0.016446 -0.728500 0.201697
v -0.016446 1.146227 0.182798
v -0.016446 -0.761572 1.145677
v -0.016446 0.390291 1.159850
v -0.016446 -2.003197 0.362929
v -0.016446 -2.102414 0.700968
v -0.016446 2.030321 0.256444
v -0.016446 2.185308 0.427385
v -0.016446 0.841193 0.832465
v -0.016446 -1.382857 0.225618
v -0.016446 2.205536 0.629925
v -0.016446 1.602108 0.773847
v -0.681670 -0.728499 0.201697
v -0.681670 1.146227 0.182798
v -0.598989 -0.761572 1.133865
v -0.598989 0.390291 1.148039
v -0.681670 -1.952171 0.362929
v -0.681670 -2.051388 0.689629
v -0.681670 2.030321 0.256444
v -0.706710 2.139952 0.419511
v -0.681670 0.841193 0.821126
v -0.681670 -1.382857 0.225618
v -0.718522 2.160180 0.625988
v -0.681670 1.602108 0.756839
v -0.016446 -0.469434 0.736681
v -0.016446 0.208864 0.192248
v -0.016446 0.677704 0.781565
v -0.016446 -0.185641 1.152763
v -0.016446 -1.406480 0.923322
v -0.016446 -1.055678 0.213657
v -0.016446 0.615742 0.996157
v -0.016446 -0.070675 0.739831
v -0.016446 -1.060403 0.827385
v -0.016446 -1.717123 0.463293
v -0.016446 0.993710 0.507631
v -0.764350 -0.469434 0.716996
v -0.681670 0.208864 0.192248
v -0.727603 0.725685 0.772653
v -0.598989 -0.185641 1.140952
v -0.681670 -1.406480 0.917653
v -0.681670 -1.055678 0.213657
v -0.681670 0.615742 0.990488
v -0.764350 -0.070675 0.720145
v -0.764350 -1.060403 0.807699
v -0.822148 -1.717122 0.524555
v -0.349058 1.146227 0.182798
v -0.349058 -0.728499 0.201697
v -0.349058 -2.074066 0.695298
v -0.349058 -0.761572 1.145676
v -0.349058 0.390291 1.159850
v -0.349058 0.841193 0.826795
v -0.349058 -1.382857 0.225618
v -0.349058 -0.185641 1.152763
v -0.349058 -1.055678 0.213657
v -0.349058 0.615742 0.993323
v -0.349058 -1.406480 0.920487
v -0.349058 0.208864 0.192248
v -0.880497 -0.598967 0.526278
v -0.681670 0.677545 0.187523
v -0.681670 -2.001780 0.526279
v -0.681670 -1.728934 0.803641
v -0.681670 -0.892089 0.207677
v -0.681670 2.107815 0.341915
v -0.681670 1.588274 0.219621
v -0.681670 1.221651 0.788982
v -0.681670 -1.667514 0.294274
v -0.726396 2.150066 0.520781
v -0.681670 1.903822 0.693382
v -0.880497 -0.399587 0.527853
v -0.880497 -1.221630 0.583591
v -0.839157 -1.549990 0.408553
v -0.839157 1.374167 0.536750
v -0.839157 1.816214 0.573573
v -0.760413 1.893708 0.584238
v -0.681670 -0.259818 0.196972
v -0.880497 0.911965 0.539271
v -0.681670 -1.219268 0.219638
v -0.681670 0.728468 0.905807
v -0.776792 -1.923942 0.640558
v -0.839157 1.069968 0.409312
v -0.829314 -1.388763 0.616913
v -0.723010 -1.233441 0.862676
v -0.787973 -1.561801 0.671889
v -0.764350 -0.764918 0.762347
v -0.880497 -1.058040 0.577610
v -0.880497 -0.762556 0.532258
v -0.764350 0.303514 0.741012
v -0.880497 0.069094 0.523128
v -0.880497 0.443284 0.543995
v -0.764350 -0.270054 0.718570
v -0.862780 1.145809 0.585367
v -0.822148 -1.775885 0.500882
vt 0.000000 0.000000
vt 0.250000 0.250000
vt 0.000000 0.250000
vt 0.000000 0.375000
vt 0.000000 0.000000
vt 0.000000 0.000000
vt 0.000000 0.250000
vt 0.250000 0.000000
vt 0.000000 0.000000
vt 0.000000 0.250000
vt 0.000000 1.000000
vt 0.000000 1.000000
vt 0.000000 0.750000
vt 0.000000 0.500000
vt 1.000000 1.000000
vt 1.000000 1.000000
vt 1.000000 0.750000
vt 1.000000 0.000000
vt 1.000000 0.000000
vt 1.000000 0.500000
vt 1.000000 0.000000
vt 1.000000 0.500000
vt 1.000000 0.500000
vt 1.000000 1.000000
vt 1.000000 1.000000
vt 1.000000 1.000000
vt 0.500000 0.000000
vt 1.000000 0.000000
vt 0.750000 0.000000
vt 0.500000 0.000000
vt 1.000000 0.000000
vt 1.000000 0.000000
vt 0.000000 1.000000
vt 0.000000 1.000000
vt 0.000000 1.000000
vt 0.000000 1.000000
vt 1.000000 1.000000
vt 1.000000 1.000000
vt 1.000000 1.000000
vt 1.000000 1.000000
vt 1.000000 1.000000
vt 1.000000 1.000000
vt 1.000000 1.000000
vt 0.000000 0.000000
vt 0.000000 0.000000
vt 0.000000 0.000000
vt 0.000000 0.000000
vt 1.000000 1.000000
vt 1.000000 1.000000
vt 1.000000 1.000000
vt 0.500000 1.000000
vt 0.000000 1.000000
vt 0.500000 1.000000
vt 1.000000 1.000000
vt 1.000000 1.000000
vt 1.000000 1.000000
vt 0.000000 1.000000
vt 0.000000 0.000000
vt 0.000000 0.000000
vt 0.000000 0.500000
vt 0.000000 0.000000
vt 0.000000 0.000000
vt 1.000000 1.000000
vt 0.500000 1.000000
vt 0.000000 1.000000
vt 0.000000 0.000000
vt 0.000000 0.000000
vt 1.000000 1.000000
vt 0.000000 1.000000
vt 0.500000 0.000000
vt 1.000000 0.625000
vt 1.000000 0.500000
vt 1.000000 0.250000
vt 1.000000 0.250000
vt 0.000000 0.500000
vt 0.000000 0.750000
vt 0.000000 0.500000
vt 0.000000 0.500000
vt 0.000000 0.250000
vt 0.000000 0.250000
vt 0.500000 0.500000
vt 0.750000 0.500000
vt 0.500000 0.250000
vt 0.750000 0.250000
vt 0.250000 0.500000
vt 0.000000 0.750000
vt 0.000000 0.500000
vt 0.500000 0.500000
vt 0.000000 0.500000
vt 0.000000 0.500000
vt 1.000000 0.500000
vt 0.000000 0.500000
vt 0.000000 0.000000
vt 0.000000 0.250000
vt 0.250000 0.250000
vt 0.000000 0.375000
vt 0.000000 0.250000
vt 0.000000 0.000000
vt 0.000000 0.000000
vt 0.250000 0.000000
vt 0.000000 0.250000
vt 0.000000 0.000000
vt 0.000000 1.000000
vt 0.000000 0.500000
vt 0.000000 0.750000
vt 0.000000 1.000000
vt 1.000000 1.000000
vt 1.000000 0.750000
vt 1.000000 1.000000
vt 1.000000 0.000000
vt 1.000000 0.500000
vt 1.000000 0.000000
vt 1.000000 0.000000
vt 1.000000 0.500000
vt 1.000000 0.500000
vt 1.000000 1.000000
vt 1.000000 1.000000
vt 1.000000 1.000000
vt 0.500000 0.000000
vt 0.500000 0.000000
vt 0.750000 0.000000
vt 1.000000 0.000000
vt 0.000000 1.000000
vt 0.000000 1.000000
vt 0.000000 1.000000
vt 0.000000 1.000000
vt 1.000000 1.000000
vt 1.000000 1.000000
vt 1.000000 1.000000
vt 1.000000 1.000000
vt 1.000000 1.000000
vt 0.000000 0.000000
vt 0.000000 0.000000
vt 0.000000 0.000000
vt 0.000000 0.000000
vt 1.000000 1.000000
vt 1.000000 1.000000
vt 0.500000 1.000000
vt 0.500000 1.000000
vt 0.000000 1.000000
vt 1.000000 1.000000
vt 1.000000 1.000000
vt 0.000000 0.500000
vt 0.000000 0.000000
vt 0.000000 0.000000
vt 1.000000 0.625000
vt 1.000000 0.250000
vt 1.000000 0.250000
vt 1.000000 0.500000
vt 0.000000 0.500000
vt 0.000000 0.750000
vt 0.000000 0.500000
vt 0.000000 0.500000
vt 0.000000 0.250000
vt 0.000000 0.250000
vt 0.500000 0.500000
vt 0.750000 0.500000
vt 0.500000 0.250000
vt 0.750000 0.250000
vt 0.250000 0.500000
vt 1.000000 0.500000
vt 0.000000 0.500000
vt 0.000000 0.750000
vn 0.8520 0.0041 -0.5235
vn 0.6813 -0.2407 -0.6913
vn 0.8562 -0.0052 -0.5167
vn 0.8774 -0.0175 -0.4794
vn 0.8750 -0.0563 0.4809
vn 0.9204 0.2348 0.3126
vn 0.9044 0.0354 -0.4252
vn 0.9207 0.2891 -0.2621
vn 0.9769 0.0806 -0.1979
vn -0.0000 -0.0101 -0.9999
vn 0.0000 0.0830 -0.9965
vn 0.0232 -0.3263 0.9450
vn 0.0631 0.9930 -0.1000
vn 0.0367 0.5651 0.8242
vn -0.0000 -0.0365 -0.9993
vn 0.0178 0.2298 0.9731
vn 0.0899 -0.0123 0.9959
vn 0.0212 0.0805 0.9965
vn 0.0114 0.7834 -0.6215
vn 0.0710 -0.9569 -0.2816
vn 0.0086 -0.2249 -0.9743
vn 0.0000 -0.0123 0.9999
vn 0.0103 0.5974 0.8019
vn 0.0103 0.5908 0.8067
vn 0.0034 0.5908 0.8068
vn 0.0422 -0.3136 0.9486
vn 0.0040 -0.3278 0.9447
vn 0.0254 -0.3118 0.9498
vn 0.9526 0.0122 0.3041
vn 0.9641 -0.2548 0.0747
vn 0.8308 -0.1474 0.5367
vn 0.8968 -0.0758 0.4358
vn 0.8610 -0.1696 0.4796
vn 0.9182 0.0601 0.3914
vn 0.8903 0.0691 0.4501
vn 0.8559 -0.0189 -0.5168
vn 0.9334 0.0194 0.3584
vn 0.8695 -0.0275 0.4931
vn 0.8719 -0.0049 -0.4896
vn 0.9361 -0.0043 0.3517
vn 0.9364 -0.0028 0.3508
vn 0.9366 -0.0043 0.3504
vn 0.8344 0.0056 0.5511
vn 0.8500 0.0346 0.5256
vn 0.8620 0.0282 -0.5061
vn 0.8595 0.0187 0.5108
vn 0.8750 -0.0734 -0.4785
vn 0.9588 -0.0537 0.2790
vn 0.8201 -0.0744 0.5673
vn 0.6822 -0.2437 0.6894
vn 0.9339 -0.1156 0.3385
vn 0.8218 0.1840 -0.5393
vn 0.9421 -0.2423 0.2320
vn 0.9957 -0.0447 0.0816
vn 0.7276 -0.3121 -0.6109
vn 0.8103 0.1206 0.5734
vn 0.7973 0.2426 0.5527
vn 0.9891 -0.1197 0.0855
vn 0.4609 0.3565 0.8127
vn 0.6811 0.6442 0.3479
vn 0.9515 0.0017 -0.3077
vn 0.7863 -0.0513 0.6157
vn 0.8925 0.0165 0.4507
vn 0.8598 0.0051 0.5105
vn 0.8989 0.1693 -0.4042
vn 0.8128 0.1075 0.5725
vn 0.7604 0.0491 0.6476
vn 0.9849 -0.0647 0.1605
vn 0.7781 -0.5730 -0.2573
vn 0.8358 -0.3131 -0.4510
vn 0.8528 -0.0041 0.5222
vn 1.0000 0.0000 -0.0000
vn -0.8520 0.0041 -0.5235
vn -0.6813 -0.2407 -0.6913
vn -0.8562 -0.0052 -0.5167
vn -0.8774 -0.0175 -0.4794
vn -0.8705 -0.0525 0.4894
vn -0.9204 0.2348 0.3126
vn -0.9044 0.0354 -0.4252
vn -0.9207 0.2891 -0.2621
vn -0.9769 0.0806 -0.1979
vn -0.0232 -0.3263 0.9450
vn -0.0631 0.9930 -0.1000
vn -0.0205 0.5810 0.8136
vn -0.0178 0.2298 0.9731
vn -0.0472 -0.0123 0.9988
vn -0.0212 0.0805 0.9965
vn -0.0114 0.7834 -0.6215
vn -0.0710 -0.9569 -0.2816
vn -0.0086 -0.2249 -0.9743
vn -0.0103 0.5974 0.8019
vn -0.0103 0.5908 0.8067
vn -0.0034 0.5908 0.8068
vn -0.0238 -0.3223 0.9463
vn -0.0040 -0.3278 0.9447
vn -0.0254 -0.3118 0.9498
vn -0.9526 0.0122 0.3041
vn -0.9464 -0.3207 0.0377
vn -0.8308 -0.1474 0.5367
vn -0.8968 -0.0758 0.4358
vn -0.8610 -0.1696 0.4796
vn -0.9120 0.0622 0.4054
vn -0.8903 0.0691 0.4501
vn -0.8559 -0.0189 -0.5168
vn -0.9277 0.0182 0.3730
vn -0.8695 -0.0275 0.4931
vn -0.8719 -0.0049 -0.4896
vn -0.9306 -0.0045 0.3660
vn -0.9310 -0.0029 0.3651
vn -0.9311 -0.0045 0.3647
vn -0.8344 0.0056 0.5511
vn -0.8500 0.0346 0.5256
vn -0.8620 0.0282 -0.5061
vn -0.8595 0.0187 0.5108
vn -0.8750 -0.0734 -0.4785
vn -0.9588 -0.0537 0.2790
vn -0.8201 -0.0744 0.5673
vn -0.6822 -0.2437 0.6894
vn -0.9339 -0.1156 0.3385
vn -0.8218 0.1840 -0.5393
vn -0.9421 -0.2423 0.2320
vn -0.9957 -0.0447 0.0816
vn -0.7276 -0.3121 -0.6109
vn -0.8103 0.1206 0.5734
vn -0.7973 0.2426 0.5527
vn -0.9891 -0.1197 0.0855
vn -0.4609 0.3565 0.8127
vn -0.6811 0.6442 0.3479
vn -0.9515 0.0017 -0.3077
vn -0.7863 -0.0513 0.6157
vn -0.8925 0.0165 0.4507
vn -0.8598 0.0051 0.5105
vn -0.8989 0.1693 -0.4042
vn -0.8128 0.1075 0.5725
vn -0.7604 0.0491 0.6476
vn -0.9849 -0.0647 0.1605
vn -0.7781 -0.5730 -0.2573
vn -0.8358 -0.3131 -0.4510
vn -0.8528 -0.0041 0.5222
usemtl None
s off
f 1/1/1 46/2/1 35/3/1
f 69/4/2 43/5/2 10/6/2 48/7/2
f 1/1/3 52/8/3 46/2/3
f 10/6/4 54/9/4 47/10/4
f 3/11/5 17/12/5 59/13/5 21/14/5
f 9/15/6 55/16/6 15/17/6
f 2/18/7 41/19/7 49/20/7
f 7/21/8 40/22/8 50/23/8
f 8/24/9 44/25/9 51/26/9
f 34/27/10 23/28/10 2/18/10 36/29/10 14/30/10
f 71/31/11 76/32/11 7/21/11 41/19/11 2/18/11 23/28/11
f 33/33/12 25/34/12 6/35/12 38/36/12 17/12/12
f 77/37/13 80/38/13 11/39/13 44/25/13 8/24/13
f 32/40/14 27/41/14 4/42/14 19/43/14
f 31/44/15 24/45/15 1/1/15 39/46/15 18/47/15
f 80/38/16 81/48/16 12/49/16 45/50/16 11/39/16
f 30/51/17 26/52/17 3/11/17 16/53/17
f 81/48/18 78/54/18 28/55/18 9/15/18 42/56/18 12/49/18
f 76/32/19 77/37/19 8/24/19 40/22/19 7/21/19
f 75/57/20 74/58/20 5/59/20 37/60/20 6/35/20 25/34/20
f 74/58/21 79/61/21 29/62/21 10/6/21 43/5/21 5/59/21
f 27/41/17 30/51/17 16/53/17 4/42/17
f 73/63/22 97/64/22 30/51/22 27/41/22
f 97/64/22 72/65/22 26/52/22 30/51/22
f 29/62/15 31/44/15 18/47/15 54/9/15 10/6/15
f 79/61/15 99/66/15 31/44/15 29/62/15
f 99/66/15 70/67/15 24/45/15 31/44/15
f 28/55/23 32/40/23 19/43/23 55/16/23 9/15/23
f 78/54/24 100/68/24 32/40/24 28/55/24
f 100/68/25 73/63/25 27/41/25 32/40/25
f 26/52/26 33/33/26 17/12/26 3/11/26
f 72/65/27 98/69/27 33/33/27 26/52/27
f 98/69/28 75/57/28 25/34/28 33/33/28
f 24/45/10 34/27/10 14/30/10 52/8/10 1/1/10
f 70/67/10 95/70/10 34/27/10 24/45/10
f 95/70/10 71/31/10 23/28/10 34/27/10
f 68/71/29 15/72/29 53/73/29 57/74/29
f 19/43/30 4/42/30 15/17/30
f 21/14/31 58/75/31 47/10/31
f 21/14/32 59/13/32 58/75/32
f 17/12/33 38/36/33 60/76/33
f 21/14/34 61/77/34 13/78/34 3/11/34
f 21/14/35 62/79/35 61/77/35
f 18/47/36 39/46/36 63/80/36
f 20/81/37 64/82/37 15/72/37 4/42/37
f 20/81/38 65/83/38 64/82/38
f 14/30/39 36/29/39 66/84/39
f 13/78/40 16/53/40 3/11/40
f 13/78/41 67/85/41 20/81/41 16/53/41
f 20/81/42 4/42/42 16/53/42
f 66/84/43 53/73/43 15/72/43
f 66/84/39 36/29/39 53/73/39
f 36/29/39 2/18/39 53/73/39
f 64/82/44 66/84/44 15/72/44
f 64/82/38 65/83/38 66/84/38
f 65/83/45 14/30/45 66/84/45
f 63/80/46 35/3/46 13/78/46
f 63/80/36 39/46/36 35/3/36
f 39/46/36 1/1/36 35/3/36
f 61/77/35 63/80/35 13/78/35
f 61/77/35 62/79/35 63/80/35
f 62/79/47 18/47/47 63/80/47
f 60/76/48 56/86/48 22/87/48
f 60/76/49 38/36/49 56/86/49
f 38/36/50 6/35/50 56/86/50
f 58/75/51 60/76/51 22/87/51
f 58/75/32 59/13/32 60/76/32
f 59/13/32 17/12/32 60/76/32
f 47/10/52 48/7/52 10/6/52
f 47/10/53 58/75/53 48/7/53
f 58/75/54 22/87/54 48/7/54
f 57/74/55 53/73/55 2/18/55
f 51/26/56 45/50/56 12/49/56
f 51/26/57 44/25/57 45/50/57
f 44/25/58 11/39/58 45/50/58
f 50/23/59 51/26/59 12/49/59
f 50/23/60 40/22/60 51/26/60
f 40/22/61 8/24/61 51/26/61
f 49/20/62 50/23/62 12/49/62
f 49/20/7 41/19/7 50/23/7
f 41/19/7 7/21/7 50/23/7
f 55/16/6 19/43/6 15/17/6
f 47/10/63 62/79/63 21/14/63
f 47/10/4 54/9/4 62/79/4
f 54/9/4 18/47/4 62/79/4
f 46/2/64 65/83/64 20/81/64
f 46/2/3 52/8/3 65/83/3
f 52/8/3 14/30/3 65/83/3
f 49/20/65 68/71/65 57/74/65 2/18/65
f 12/49/66 42/56/66 68/71/66 49/20/66
f 42/56/67 9/15/67 15/17/67 68/71/67
f 56/86/68 69/4/68 48/7/68 22/87/68
f 6/35/69 37/60/69 69/4/69 56/86/69
f 37/60/70 5/59/70 43/5/70 69/4/70
f 35/3/71 67/85/71 13/78/71
f 35/3/71 46/2/71 67/85/71
f 46/2/71 20/81/71 67/85/71
f 70/67/72 101/88/72 94/89/72
f 75/57/72 74/58/72 79/61/72 103/90/72
f 81/48/72 78/54/72 104/91/72 71/31/72
f 70/67/72 95/70/72 101/88/72
f 79/61/72 99/66/72 102/92/72
f 72/65/72 98/69/72 102/92/72
f 78/54/72 100/68/72 104/91/72
f 71/31/72 76/32/72 81/48/72
f 76/32/72 77/37/72 81/48/72
f 77/37/72 80/38/72 81/48/72
f 82/93/73 127/94/73 138/95/73
f 161/96/74 140/97/74 91/98/74 135/99/74
f 82/93/75 138/95/75 144/100/75
f 91/98/76 139/101/76 146/102/76
f 84/103/77 113/104/77 151/105/77 109/106/77
f 90/107/78 107/108/78 147/109/78
f 83/110/79 141/111/79 133/112/79
f 88/113/80 142/114/80 132/115/80
f 89/116/81 143/117/81 136/118/81
f 126/119/10 106/120/10 128/121/10 83/110/10 115/122/10
f 71/31/11 115/122/11 83/110/11 133/112/11 88/113/11 76/32/11
f 125/123/82 109/106/82 130/124/82 87/125/82 117/126/82
f 77/37/83 89/116/83 136/118/83 92/127/83 80/38/83
f 124/128/84 111/129/84 85/130/84 119/131/84
f 123/132/15 110/133/15 131/134/15 82/93/15 116/135/15
f 80/38/85 92/127/85 137/136/85 93/137/85 81/48/85
f 122/138/86 108/139/86 84/103/86 118/140/86
f 81/48/87 93/137/87 134/141/87 90/107/87 120/142/87 78/54/87
f 76/32/88 88/113/88 132/115/88 89/116/88 77/37/88
f 75/57/89 117/126/89 87/125/89 129/143/89 86/144/89 74/58/89
f 74/58/90 86/144/90 135/99/90 91/98/90 121/145/90 79/61/90
f 119/131/86 85/130/86 108/139/86 122/138/86
f 73/63/22 119/131/22 122/138/22 97/64/22
f 97/64/22 122/138/22 118/140/22 72/65/22
f 121/145/15 91/98/15 146/102/15 110/133/15 123/132/15
f 79/61/15 121/145/15 123/132/15 99/66/15
f 99/66/15 123/132/15 116/135/15 70/67/15
f 120/142/91 90/107/91 147/109/91 111/129/91 124/128/91
f 78/54/92 120/142/92 124/128/92 100/68/92
f 100/68/93 124/128/93 119/131/93 73/63/93
f 118/140/94 84/103/94 109/106/94 125/123/94
f 72/65/95 118/140/95 125/123/95 98/69/95
f 98/69/96 125/123/96 117/126/96 75/57/96
f 116/135/10 82/93/10 144/100/10 106/120/10 126/119/10
f 70/67/10 116/135/10 126/119/10 95/70/10
f 95/70/10 126/119/10 115/122/10 71/31/10
f 160/146/97 149/147/97 145/148/97 107/149/97
f 111/129/98 107/108/98 85/130/98
f 113/104/99 139/101/99 150/150/99
f 113/104/100 150/150/100 151/105/100
f 109/106/101 152/151/101 130/124/101
f 113/104/102 84/103/102 105/152/102 153/153/102
f 113/104/103 153/153/103 154/154/103
f 110/133/104 155/155/104 131/134/104
f 112/156/105 85/130/105 107/149/105 156/157/105
f 112/156/106 156/157/106 157/158/106
f 106/120/107 158/159/107 128/121/107
f 105/152/108 84/103/108 108/139/108
f 105/152/109 108/139/109 112/156/109 159/160/109
f 112/156/110 108/139/110 85/130/110
f 100/68/72 73/63/72 96/161/72
f 100/68/72 96/161/72 104/91/72
f 104/91/72 96/161/72 71/31/72
f 98/69/72 75/57/72 103/90/72
f 98/69/72 103/90/72 102/92/72
f 102/92/72 103/90/72 79/61/72
f 99/66/72 70/67/72 94/89/72
f 99/66/72 94/89/72 102/92/72
f 102/92/72 94/89/72 72/65/72
f 95/70/72 71/31/72 96/161/72
f 95/70/72 96/161/72 101/88/72
f 101/88/72 96/161/72 73/63/72
f 101/88/72 73/63/72 97/64/72
f 101/88/72 97/64/72 94/89/72
f 94/89/72 97/64/72 72/65/72
f 158/159/111 107/149/111 145/148/111
f 158/159/107 145/148/107 128/121/107
f 128/121/107 145/148/107 83/110/107
f 156/157/112 107/149/112 158/159/112
f 156/157/106 158/159/106 157/158/106
f 157/158/113 158/159/113 106/120/113
f 155/155/114 105/152/114 127/94/114
f 155/155/104 127/94/104 131/134/104
f 131/134/104 127/94/104 82/93/104
f 153/153/103 105/152/103 155/155/103
f 153/153/103 155/155/103 154/154/103
f 154/154/115 155/155/115 110/133/115
f 152/151/116 114/162/116 148/163/116
f 152/151/117 148/163/117 130/124/117
f 130/124/118 148/163/118 87/125/118
f 150/150/119 114/162/119 152/151/119
f 150/150/100 152/151/100 151/105/100
f 151/105/100 152/151/100 109/106/100
f 139/101/120 91/98/120 140/97/120
f 139/101/121 140/97/121 150/150/121
f 150/150/122 140/97/122 114/162/122
f 149/147/123 83/110/123 145/148/123
f 143/117/124 93/137/124 137/136/124
f 143/117/125 137/136/125 136/118/125
f 136/118/126 137/136/126 92/127/126
f 142/114/127 93/137/127 143/117/127
f 142/114/128 143/117/128 132/115/128
f 132/115/129 143/117/129 89/116/129
f 141/111/130 93/137/130 142/114/130
f 141/111/79 142/114/79 133/112/79
f 133/112/79 142/114/79 88/113/79
f 147/109/78 107/108/78 111/129/78
f 139/101/131 113/104/131 154/154/131
f 139/101/76 154/154/76 146/102/76
f 146/102/76 154/154/76 110/133/76
f 138/95/132 112/156/132 157/158/132
f 138/95/75 157/158/75 144/100/75
f 144/100/75 157/158/75 106/120/75
f 141/111/133 83/110/133 149/147/133 160/146/133
f 93/137/134 141/111/134 160/146/134 134/141/134
f 134/141/135 160/146/135 107/108/135 90/107/135
f 148/163/136 114/162/136 140/97/136 161/96/136
f 87/125/137 148/163/137 161/96/137 129/143/137
f 129/143/138 161/96/138 135/99/138 86/144/138
f 127/94/139 105/152/139 159/160/139
f 127/94/139 159/160/139 138/95/139
f 138/95/139 159/160/139 112/156/139
