# Blender v3.1.2 OBJ File: ''
# www.blender.org
mtllib 1100.mtl
o Plane_Plane.011
v -5.000000 -5.000000 -0.000000
v 5.000000 -5.000000 -0.000000
v -5.000000 5.000000 0.000000
v 5.000000 5.000000 0.000000
v -5.000000 3.000000 0.000000
v -5.000000 1.000000 0.000000
v -5.000000 -1.000000 -0.000000
v -5.000000 -3.000000 -0.000000
v 5.000000 -3.000000 -0.000000
v 5.000000 -1.000000 -0.000000
v 5.000000 1.000000 0.000000
v 5.000000 3.000000 0.000000
v -3.000000 -5.000000 -0.000000
v -1.000000 -5.000000 -0.000000
v 1.000000 -5.000000 -0.000000
v 3.000000 -5.000000 -0.000000
v 3.000000 5.000000 0.000000
v 1.000000 5.000000 0.000000
v -1.000000 5.000000 0.000000
v -3.000000 5.000000 0.000000
v 3.000000 -3.000000 -0.000000
v 1.000000 -3.000000 -0.000000
v -1.000000 -3.000000 -0.000000
v -3.000000 -3.000000 -0.000000
v 3.000000 -1.000000 -0.000000
v 1.000000 -1.000000 -0.000000
v -1.000000 -1.000000 -0.000000
v -3.000000 -1.000000 -0.000000
v 3.000000 1.000000 0.000000
v 1.000000 1.000000 0.000000
v -1.000000 1.000000 0.000000
v -3.000000 1.000000 0.000000
v 3.000000 3.000000 0.000000
v 1.000000 3.000000 0.000000
v -1.000000 3.000000 0.000000
v -3.000000 3.000000 0.000000
v -5.000000 0.600000 0.000000
v -5.000000 0.200000 0.000000
v -5.000000 -0.200000 -0.000000
v -5.000000 -0.600000 -0.000000
v 5.000000 -0.600000 -0.000000
v 5.000000 0.600000 0.000000
v -3.000000 -0.600000 -0.000000
v -3.000000 -0.200000 -0.000000
v -3.000000 0.200000 0.000000
v -3.000000 0.600000 0.000000
v -1.000000 -0.600000 -0.000000
v -1.000000 -0.200000 -0.000000
v -1.000000 0.200000 0.000000
v -1.000000 0.600000 0.000000
v 1.000000 -0.600000 -0.000000
v 1.000000 0.600000 0.000000
v 3.000000 -0.600000 -0.000000
v 3.000000 0.600000 0.000000
v -0.600000 -5.000000 -0.000000
v 0.600000 -5.000000 -0.000000
v 0.600000 5.000000 0.000000
v 0.200000 5.000000 0.000000
v -0.200000 5.000000 0.000000
v -0.600000 5.000000 0.000000
v 0.600000 -3.000000 -0.000000
v -0.600000 -3.000000 -0.000000
v 0.600000 -1.000000 -0.000000
v -0.600000 -1.000000 -0.000000
v 0.600000 1.000000 0.000000
v 0.200000 1.000000 0.000000
v -0.200000 1.000000 0.000000
v -0.600000 1.000000 0.000000
v 0.600000 3.000000 0.000000
v 0.200000 3.000000 0.000000
v -0.200000 3.000000 0.000000
v -0.600000 3.000000 0.000000
v 0.600000 -0.600000 -0.000000
v -0.600000 -0.600000 -0.000000
v -0.600000 -0.200000 -0.000000
v -0.600000 0.200000 0.000000
v 0.600000 0.600000 0.000000
v 0.200000 0.600000 0.000000
v -0.200000 0.600000 0.000000
v -0.600000 0.600000 0.000000
v 5.000000 -0.600000 -0.300000
v 5.000000 -0.200000 -0.300000
v 5.000000 0.200000 -0.300000
v 5.000000 0.600000 -0.300000
v 1.000000 -0.600000 -0.300000
v 1.000000 -0.200000 -0.300000
v 1.000000 0.200000 -0.300000
v 1.000000 0.600000 -0.300000
v 3.000000 -0.600000 -0.300000
v 3.000000 -0.200000 -0.300000
v 3.000000 0.200000 -0.300000
v 3.000000 0.600000 -0.300000
v -0.600000 -5.000000 -0.300000
v -0.200000 -5.000000 -0.300000
v 0.200000 -5.000000 -0.300000
v 0.600000 -5.000000 -0.300000
v 0.600000 -3.000000 -0.300000
v 0.200000 -3.000000 -0.300000
v -0.200000 -3.000000 -0.300000
v -0.600000 -3.000000 -0.300000
v 0.600000 -1.000000 -0.300000
v 0.200000 -1.000000 -0.300000
v -0.200000 -1.000000 -0.300000
v -0.600000 -1.000000 -0.300000
v 0.600000 -0.600000 -0.300000
v 0.200000 -0.600000 -0.300000
v -0.200000 -0.600000 -0.300000
v -0.600000 -0.600000 -0.300000
v 0.600000 -0.200000 -0.300000
v 0.200000 -0.200000 -0.300000
v -0.200000 -0.200000 -0.300000
v -0.600000 -0.200000 -0.300000
v 0.600000 0.200000 -0.300000
v 0.200000 0.200000 -0.300000
v -0.200000 0.200000 -0.300000
v -0.600000 0.200000 -0.300000
v 0.600000 0.600000 -0.300000
v 0.200000 0.600000 -0.300000
v -0.200000 0.600000 -0.300000
v -0.600000 0.600000 -0.300000
vt 0.144881 0.144881
vt 0.034230 0.144881
vt 0.034230 0.034230
vt 0.144881 0.034230
vt 0.034230 0.766598
vt 0.034230 0.655946
vt 0.144881 0.655946
vt 0.144881 0.766598
vt 0.255533 0.655946
vt 0.255533 0.766598
vt 0.144881 0.277663
vt 0.034230 0.277663
vt 0.034230 0.255533
vt 0.144881 0.255533
vt 0.587487 0.255533
vt 0.476835 0.255533
vt 0.476836 0.144881
vt 0.587487 0.144881
vt 0.366184 0.255533
vt 0.366184 0.144881
vt 0.277663 0.255533
vt 0.255533 0.255533
vt 0.255533 0.144881
vt 0.277663 0.144881
vt 0.587487 0.277663
vt 0.476835 0.277663
vt 0.366184 0.277663
vt 0.277663 0.277663
vt 0.255533 0.277663
vt 0.587487 0.476836
vt 0.476835 0.476836
vt 0.476835 0.366184
vt 0.587487 0.366184
vt 0.366184 0.476836
vt 0.366184 0.366184
vt 0.144881 0.899380
vt 0.144881 0.877249
vt 0.255533 0.877249
vt 0.255533 0.899380
vt 0.587487 0.587487
vt 0.476835 0.587487
vt 0.366184 0.587487
vt 0.034230 0.899380
vt 0.034230 0.877249
vt 0.476836 0.034230
vt 0.587487 0.034230
vt 0.366184 0.034230
vt 0.255533 0.034230
vt 0.277663 0.034230
vt 0.277663 0.766598
vt 0.277663 0.877249
vt 0.277663 0.899380
vt 0.497570 0.899380
vt 0.497570 0.788728
vt 0.580559 0.788728
vt 0.580559 0.899380
vt 0.807394 0.678077
vt 0.807394 0.655946
vt 0.890383 0.655946
vt 0.890383 0.678077
vt 0.346122 0.766598
vt 0.346122 0.655946
vt 0.429111 0.655946
vt 0.429111 0.766598
vt 0.366184 0.344054
vt 0.476835 0.344054
vt 0.366184 0.321923
vt 0.476835 0.321923
vt 0.366184 0.299793
vt 0.476835 0.299793
vt 0.587487 0.344054
vt 0.587487 0.321923
vt 0.587487 0.299793
vt 0.277663 0.655946
vt 0.497570 0.678077
vt 0.497570 0.655946
vt 0.580559 0.655946
vt 0.580559 0.678077
vt 0.807394 0.722337
vt 0.807394 0.700207
vt 0.890383 0.700207
vt 0.890383 0.722337
vt 0.344054 0.299793
vt 0.344054 0.277663
vt 0.346122 0.877249
vt 0.429111 0.877249
vt 0.655946 0.434643
vt 0.655946 0.412513
vt 0.738935 0.412513
vt 0.738935 0.434643
vt 0.344054 0.321923
vt 0.346122 0.899380
vt 0.429111 0.899380
vt 0.655946 0.456774
vt 0.738935 0.456774
vt 0.344054 0.344054
vt 0.807394 0.523164
vt 0.807394 0.412513
vt 0.890383 0.412513
vt 0.890383 0.523164
vt 0.807394 0.633816
vt 0.890383 0.633816
vt 0.344054 0.366184
vt 0.655946 0.478904
vt 0.738935 0.478904
vt 0.344054 0.144881
vt 0.344054 0.034230
vt 0.321923 0.144881
vt 0.321923 0.034230
vt 0.299793 0.144881
vt 0.299793 0.034230
vt 0.344054 0.587487
vt 0.344054 0.476836
vt 0.655946 0.501034
vt 0.738935 0.501034
vt 0.655946 0.722337
vt 0.655946 0.611686
vt 0.738935 0.611686
vt 0.738935 0.722337
vt 0.344054 0.255533
vt 0.321923 0.277663
vt 0.321923 0.255533
vt 0.299793 0.277663
vt 0.299793 0.255533
vt 0.722337 0.122751
vt 0.722337 0.233402
vt 0.700207 0.233402
vt 0.700207 0.122751
vt 0.678077 0.233402
vt 0.678077 0.122751
vt 0.655946 0.233402
vt 0.655946 0.122751
vt 0.722337 0.100621
vt 0.700207 0.100621
vt 0.678077 0.100621
vt 0.655946 0.100621
vt 0.722337 0.344054
vt 0.700207 0.344054
vt 0.678077 0.344054
vt 0.655946 0.344054
vt 0.678077 0.034230
vt 0.678077 0.056360
vt 0.655946 0.056360
vt 0.655946 0.034230
vt 0.678077 0.078490
vt 0.655946 0.078490
vt 0.700207 0.034230
vt 0.700207 0.056360
vt 0.700207 0.078490
vt 0.722337 0.034230
vt 0.722337 0.056360
vt 0.722337 0.078490
vt 0.744467 0.034230
vt 0.744467 0.056360
vt 0.744467 0.078490
vt 0.744467 0.100621
vt 0.965770 0.034230
vt 0.965770 0.056360
vt 0.855119 0.056360
vt 0.855119 0.034230
vt 0.965770 0.078490
vt 0.855119 0.078490
vt 0.965770 0.100621
vt 0.855119 0.100621
vn 0.0000 -0.0000 1.0000
vn -1.0000 -0.0000 0.0000
vn 1.0000 0.0000 0.0000
vn 0.0000 1.0000 0.0000
vn 0.0000 -1.0000 0.0000
usemtl Material
s off
f 33/1/1 12/2/1 4/3/1 17/4/1
f 16/5/1 2/6/1 9/7/1 21/8/1
f 21/8/1 9/7/1 10/9/1 25/10/1
f 54/11/1 42/12/1 11/13/1 29/14/1
f 29/14/1 11/13/1 12/2/1 33/1/1
f 6/15/1 32/16/1 36/17/1 5/18/1
f 32/16/1 31/19/1 35/20/1 36/17/1
f 65/21/1 30/22/1 34/23/1 69/24/1
f 30/22/1 29/14/1 33/1/1 34/23/1
f 37/25/1 46/26/1 32/16/1 6/15/1
f 46/26/1 50/27/1 31/19/1 32/16/1
f 77/28/1 52/29/1 30/22/1 65/21/1
f 52/29/1 54/11/1 29/14/1 30/22/1
f 8/30/1 24/31/1 28/32/1 7/33/1
f 24/31/1 23/34/1 27/35/1 28/32/1
f 61/36/1 22/37/1 26/38/1 63/39/1
f 22/37/1 21/8/1 25/10/1 26/38/1
f 1/40/1 13/41/1 24/31/1 8/30/1
f 13/41/1 14/42/1 23/34/1 24/31/1
f 56/43/1 15/44/1 22/37/1 61/36/1
f 15/44/1 16/5/1 21/8/1 22/37/1
f 5/18/1 36/17/1 20/45/1 3/46/1
f 36/17/1 35/20/1 19/47/1 20/45/1
f 69/24/1 34/23/1 18/48/1 57/49/1
f 34/23/1 33/1/1 17/4/1 18/48/1
f 26/38/1 25/10/1 53/50/1 51/51/1
f 63/39/1 26/38/1 51/51/1 73/52/1
f 56/53/2 61/54/2 97/55/2 96/56/2
f 75/57/3 74/58/3 108/59/3 112/60/3
f 53/61/4 41/62/4 81/63/4 89/64/4
f 28/32/1 27/35/1 47/65/1 43/66/1
f 43/66/1 47/65/1 48/67/1 44/68/1
f 44/68/1 48/67/1 49/69/1 45/70/1
f 45/70/1 49/69/1 50/27/1 46/26/1
f 7/33/1 28/32/1 43/66/1 40/71/1
f 40/71/1 43/66/1 44/68/1 39/72/1
f 39/72/1 44/68/1 45/70/1 38/73/1
f 38/73/1 45/70/1 46/26/1 37/25/1
f 25/10/1 10/9/1 41/74/1 53/50/1
f 63/75/2 73/76/2 105/77/2 101/78/2
f 80/79/3 76/80/3 116/81/3 120/82/3
f 49/69/1 76/83/1 80/84/1 50/27/1
f 51/85/4 53/61/4 89/64/4 85/86/4
f 79/87/5 80/88/5 120/89/5 119/90/5
f 48/67/1 75/91/1 76/83/1 49/69/1
f 73/92/4 51/85/4 85/86/4 105/93/4
f 78/94/5 79/87/5 119/90/5 118/95/5
f 47/65/1 74/96/1 75/91/1 48/67/1
f 62/97/3 55/98/3 93/99/3 100/100/3
f 61/54/2 63/75/2 101/78/2 97/55/2
f 74/58/3 64/101/3 104/102/3 108/59/3
f 27/35/1 64/103/1 74/96/1 47/65/1
f 77/104/5 78/94/5 118/95/5 117/105/5
f 76/80/3 75/57/3 112/60/3 116/81/3
f 35/20/1 72/106/1 60/107/1 19/47/1
f 72/106/1 71/108/1 59/109/1 60/107/1
f 71/108/1 70/110/1 58/111/1 59/109/1
f 70/110/1 69/24/1 57/49/1 58/111/1
f 14/42/1 55/112/1 62/113/1 23/34/1
f 52/114/5 77/104/5 117/105/5 88/115/5
f 42/116/5 54/117/5 92/118/5 84/119/5
f 23/34/1 62/113/1 64/103/1 27/35/1
f 54/117/5 52/114/5 88/115/5 92/118/5
f 64/101/3 62/97/3 100/100/3 104/102/3
f 50/27/1 80/84/1 68/120/1 31/19/1
f 80/84/1 79/121/1 67/122/1 68/120/1
f 79/121/1 78/123/1 66/124/1 67/122/1
f 78/123/1 77/28/1 65/21/1 66/124/1
f 31/19/1 68/120/1 72/106/1 35/20/1
f 68/120/1 67/122/1 71/108/1 72/106/1
f 67/122/1 66/124/1 70/110/1 71/108/1
f 66/124/1 65/21/1 69/24/1 70/110/1
f 85/125/1 89/126/1 90/127/1 86/128/1
f 86/128/1 90/127/1 91/129/1 87/130/1
f 87/130/1 91/129/1 92/131/1 88/132/1
f 105/133/1 85/125/1 86/128/1 109/134/1
f 109/134/1 86/128/1 87/130/1 113/135/1
f 113/135/1 87/130/1 88/132/1 117/136/1
f 89/126/1 81/137/1 82/138/1 90/127/1
f 90/127/1 82/138/1 83/139/1 91/129/1
f 91/129/1 83/139/1 84/140/1 92/131/1
f 116/141/1 115/142/1 119/143/1 120/144/1
f 115/142/1 114/145/1 118/146/1 119/143/1
f 114/145/1 113/135/1 117/136/1 118/146/1
f 112/147/1 111/148/1 115/142/1 116/141/1
f 111/148/1 110/149/1 114/145/1 115/142/1
f 110/149/1 109/134/1 113/135/1 114/145/1
f 108/150/1 107/151/1 111/148/1 112/147/1
f 107/151/1 106/152/1 110/149/1 111/148/1
f 106/152/1 105/133/1 109/134/1 110/149/1
f 104/153/1 103/154/1 107/151/1 108/150/1
f 103/154/1 102/155/1 106/152/1 107/151/1
f 102/155/1 101/156/1 105/133/1 106/152/1
f 93/157/1 94/158/1 99/159/1 100/160/1
f 94/158/1 95/161/1 98/162/1 99/159/1
f 95/161/1 96/163/1 97/164/1 98/162/1
f 100/160/1 99/159/1 103/154/1 104/153/1
f 99/159/1 98/162/1 102/155/1 103/154/1
f 98/162/1 97/164/1 101/156/1 102/155/1
