# Blender v2.93.4 OBJ File: 'tiles.blend'
# www.blender.org
mtllib 0000.mtl
o 0000_Plane.002
v -5.000000 -5.000000 0.000000
v 5.000000 -5.000000 0.000000
v -5.000000 5.000000 0.000000
v 5.000000 5.000000 0.000000
v -5.000000 3.000000 0.000000
v -5.000000 1.000000 0.000000
v -5.000000 -1.000000 0.000000
v -5.000000 -3.000000 0.000000
v 5.000000 -3.000000 0.000000
v 5.000000 -1.000000 0.000000
v 5.000000 1.000000 0.000000
v 5.000000 3.000000 0.000000
v -3.000000 -5.000000 0.000000
v -1.000000 -5.000000 0.000000
v 1.000000 -5.000000 0.000000
v 3.000000 -5.000000 0.000000
v 3.000000 5.000000 0.000000
v 1.000000 5.000000 0.000000
v -1.000000 5.000000 0.000000
v -3.000000 5.000000 0.000000
v 3.000000 -3.000000 0.000000
v 1.000000 -3.000000 0.000000
v -1.000000 -3.000000 0.000000
v -3.000000 -3.000000 0.000000
v 3.000000 -1.000000 0.000000
v 1.000000 -1.000000 0.000000
v -1.000000 -1.000000 0.000000
v -3.000000 -1.000000 0.000000
v 3.000000 1.000000 0.000000
v 1.000000 1.000000 0.000000
v -1.000000 1.000000 0.000000
v -3.000000 1.000000 0.000000
v 3.000000 3.000000 0.000000
v 1.000000 3.000000 0.000000
v -1.000000 3.000000 0.000000
v -3.000000 3.000000 0.000000
v -5.000000 0.600000 0.000000
v -5.000000 0.200000 0.000000
v -5.000000 -0.200000 0.000000
v -5.000000 -0.600000 0.000000
v 5.000000 -0.600000 0.000000
v 5.000000 -0.200000 0.000000
v 5.000000 0.200000 0.000000
v 5.000000 0.600000 0.000000
v -3.000000 -0.600000 0.000000
v -3.000000 -0.200000 0.000000
v -3.000000 0.200000 0.000000
v -3.000000 0.600000 0.000000
v -1.000000 -0.600000 0.000000
v -1.000000 -0.200000 0.000000
v -1.000000 0.200000 0.000000
v -1.000000 0.600000 0.000000
v 1.000000 -0.600000 0.000000
v 1.000000 -0.200000 0.000000
v 1.000000 0.200000 0.000000
v 1.000000 0.600000 0.000000
v 3.000000 -0.600000 0.000000
v 3.000000 -0.200000 0.000000
v 3.000000 0.200000 0.000000
v 3.000000 0.600000 0.000000
v -0.600000 -5.000000 0.000000
v -0.200000 -5.000000 0.000000
v 0.200000 -5.000000 0.000000
v 0.600000 -5.000000 0.000000
v 0.600000 5.000000 0.000000
v 0.200000 5.000000 0.000000
v -0.200000 5.000000 0.000000
v -0.600000 5.000000 0.000000
v 0.600000 -3.000000 0.000000
v 0.200000 -3.000000 0.000000
v -0.200000 -3.000000 0.000000
v -0.600000 -3.000000 0.000000
v 0.600000 -1.000000 0.000000
v 0.200000 -1.000000 0.000000
v -0.200000 -1.000000 0.000000
v -0.600000 -1.000000 0.000000
v 0.600000 1.000000 0.000000
v 0.200000 1.000000 0.000000
v -0.200000 1.000000 0.000000
v -0.600000 1.000000 0.000000
v 0.600000 3.000000 0.000000
v 0.200000 3.000000 0.000000
v -0.200000 3.000000 0.000000
v -0.600000 3.000000 0.000000
v 0.600000 -0.600000 0.000000
v 0.200000 -0.600000 0.000000
v -0.200000 -0.600000 0.000000
v -0.600000 -0.600000 0.000000
v 0.600000 -0.200000 0.000000
v 0.200000 -0.200000 0.000000
v -0.200000 -0.200000 0.000000
v -0.600000 -0.200000 0.000000
v 0.600000 0.200000 0.000000
v 0.200000 0.200000 0.000000
v -0.200000 0.200000 0.000000
v -0.600000 0.200000 0.000000
v 0.600000 0.600000 0.000000
v 0.200000 0.600000 0.000000
v -0.200000 0.600000 0.000000
v -0.600000 0.600000 0.000000
vt 0.800000 0.800000
vt 1.000000 0.800000
vt 1.000000 1.000000
vt 0.800000 1.000000
vt 0.800000 0.000000
vt 1.000000 0.000000
vt 1.000000 0.200000
vt 0.800000 0.200000
vt 1.000000 0.400000
vt 0.800000 0.400000
vt 0.800000 0.560000
vt 1.000000 0.560000
vt 1.000000 0.600000
vt 0.800000 0.600000
vt 0.000000 0.600000
vt 0.200000 0.600000
vt 0.200000 0.800000
vt 0.000000 0.800000
vt 0.400000 0.600000
vt 0.400000 0.800000
vt 0.560000 0.600000
vt 0.600000 0.600000
vt 0.600000 0.800000
vt 0.560000 0.800000
vt 0.000000 0.560000
vt 0.200000 0.560000
vt 0.400000 0.560000
vt 0.560000 0.560000
vt 0.600000 0.560000
vt 0.000000 0.200000
vt 0.200000 0.200000
vt 0.200000 0.400000
vt 0.000000 0.400000
vt 0.400000 0.200000
vt 0.400000 0.400000
vt 0.560000 0.200000
vt 0.600000 0.200000
vt 0.600000 0.400000
vt 0.560000 0.400000
vt 0.000000 0.000000
vt 0.200000 0.000000
vt 0.400000 0.000000
vt 0.560000 0.000000
vt 0.600000 0.000000
vt 0.200000 1.000000
vt 0.000000 1.000000
vt 0.400000 1.000000
vt 0.600000 1.000000
vt 0.560000 1.000000
vt 0.800000 0.440000
vt 0.600000 0.440000
vt 0.800000 0.480000
vt 0.600000 0.480000
vt 0.800000 0.520000
vt 0.600000 0.520000
vt 0.560000 0.440000
vt 0.560000 0.480000
vt 0.560000 0.520000
vt 0.400000 0.440000
vt 0.200000 0.440000
vt 0.400000 0.480000
vt 0.200000 0.480000
vt 0.400000 0.520000
vt 0.200000 0.520000
vt 0.000000 0.440000
vt 0.000000 0.480000
vt 0.000000 0.520000
vt 1.000000 0.440000
vt 1.000000 0.480000
vt 1.000000 0.520000
vt 0.440000 0.520000
vt 0.440000 0.560000
vt 0.480000 0.520000
vt 0.480000 0.560000
vt 0.520000 0.520000
vt 0.520000 0.560000
vt 0.440000 0.480000
vt 0.480000 0.480000
vt 0.520000 0.480000
vt 0.440000 0.440000
vt 0.480000 0.440000
vt 0.520000 0.440000
vt 0.440000 0.400000
vt 0.480000 0.400000
vt 0.520000 0.400000
vt 0.440000 0.800000
vt 0.440000 1.000000
vt 0.480000 0.800000
vt 0.480000 1.000000
vt 0.520000 0.800000
vt 0.520000 1.000000
vt 0.440000 0.000000
vt 0.440000 0.200000
vt 0.480000 0.000000
vt 0.480000 0.200000
vt 0.520000 0.000000
vt 0.520000 0.200000
vt 0.440000 0.600000
vt 0.480000 0.600000
vt 0.520000 0.600000
vn 0.0000 0.0000 1.0000
usemtl grass
s off
f 33/1/1 12/2/1 4/3/1 17/4/1
f 16/5/1 2/6/1 9/7/1 21/8/1
f 21/8/1 9/7/1 10/9/1 25/10/1
f 60/11/1 44/12/1 11/13/1 29/14/1
f 29/14/1 11/13/1 12/2/1 33/1/1
f 6/15/1 32/16/1 36/17/1 5/18/1
f 32/16/1 31/19/1 35/20/1 36/17/1
f 77/21/1 30/22/1 34/23/1 81/24/1
f 30/22/1 29/14/1 33/1/1 34/23/1
f 37/25/1 48/26/1 32/16/1 6/15/1
f 48/26/1 52/27/1 31/19/1 32/16/1
f 97/28/1 56/29/1 30/22/1 77/21/1
f 56/29/1 60/11/1 29/14/1 30/22/1
f 8/30/1 24/31/1 28/32/1 7/33/1
f 24/31/1 23/34/1 27/35/1 28/32/1
f 69/36/1 22/37/1 26/38/1 73/39/1
f 22/37/1 21/8/1 25/10/1 26/38/1
f 1/40/1 13/41/1 24/31/1 8/30/1
f 13/41/1 14/42/1 23/34/1 24/31/1
f 64/43/1 15/44/1 22/37/1 69/36/1
f 15/44/1 16/5/1 21/8/1 22/37/1
f 5/18/1 36/17/1 20/45/1 3/46/1
f 36/17/1 35/20/1 19/47/1 20/45/1
f 81/24/1 34/23/1 18/48/1 65/49/1
f 34/23/1 33/1/1 17/4/1 18/48/1
f 26/38/1 25/10/1 57/50/1 53/51/1
f 53/51/1 57/50/1 58/52/1 54/53/1
f 54/53/1 58/52/1 59/54/1 55/55/1
f 55/55/1 59/54/1 60/11/1 56/29/1
f 73/39/1 26/38/1 53/51/1 85/56/1
f 85/56/1 53/51/1 54/53/1 89/57/1
f 89/57/1 54/53/1 55/55/1 93/58/1
f 93/58/1 55/55/1 56/29/1 97/28/1
f 28/32/1 27/35/1 49/59/1 45/60/1
f 45/60/1 49/59/1 50/61/1 46/62/1
f 46/62/1 50/61/1 51/63/1 47/64/1
f 47/64/1 51/63/1 52/27/1 48/26/1
f 7/33/1 28/32/1 45/60/1 40/65/1
f 40/65/1 45/60/1 46/62/1 39/66/1
f 39/66/1 46/62/1 47/64/1 38/67/1
f 38/67/1 47/64/1 48/26/1 37/25/1
f 25/10/1 10/9/1 41/68/1 57/50/1
f 57/50/1 41/68/1 42/69/1 58/52/1
f 58/52/1 42/69/1 43/70/1 59/54/1
f 59/54/1 43/70/1 44/12/1 60/11/1
f 51/63/1 96/71/1 100/72/1 52/27/1
f 96/71/1 95/73/1 99/74/1 100/72/1
f 95/73/1 94/75/1 98/76/1 99/74/1
f 94/75/1 93/58/1 97/28/1 98/76/1
f 50/61/1 92/77/1 96/71/1 51/63/1
f 92/77/1 91/78/1 95/73/1 96/71/1
f 91/78/1 90/79/1 94/75/1 95/73/1
f 90/79/1 89/57/1 93/58/1 94/75/1
f 49/59/1 88/80/1 92/77/1 50/61/1
f 88/80/1 87/81/1 91/78/1 92/77/1
f 87/81/1 86/82/1 90/79/1 91/78/1
f 86/82/1 85/56/1 89/57/1 90/79/1
f 27/35/1 76/83/1 88/80/1 49/59/1
f 76/83/1 75/84/1 87/81/1 88/80/1
f 75/84/1 74/85/1 86/82/1 87/81/1
f 74/85/1 73/39/1 85/56/1 86/82/1
f 35/20/1 84/86/1 68/87/1 19/47/1
f 84/86/1 83/88/1 67/89/1 68/87/1
f 83/88/1 82/90/1 66/91/1 67/89/1
f 82/90/1 81/24/1 65/49/1 66/91/1
f 14/42/1 61/92/1 72/93/1 23/34/1
f 61/92/1 62/94/1 71/95/1 72/93/1
f 62/94/1 63/96/1 70/97/1 71/95/1
f 63/96/1 64/43/1 69/36/1 70/97/1
f 23/34/1 72/93/1 76/83/1 27/35/1
f 72/93/1 71/95/1 75/84/1 76/83/1
f 71/95/1 70/97/1 74/85/1 75/84/1
f 70/97/1 69/36/1 73/39/1 74/85/1
f 52/27/1 100/72/1 80/98/1 31/19/1
f 100/72/1 99/74/1 79/99/1 80/98/1
f 99/74/1 98/76/1 78/100/1 79/99/1
f 98/76/1 97/28/1 77/21/1 78/100/1
f 31/19/1 80/98/1 84/86/1 35/20/1
f 80/98/1 79/99/1 83/88/1 84/86/1
f 79/99/1 78/100/1 82/90/1 83/88/1
f 78/100/1 77/21/1 81/24/1 82/90/1
