# Blender v3.1.2 OBJ File: 'forest_road.blend'
# www.blender.org
mtllib forest_road.mtl
o Plane
v -5.000000 -5.000000 -0.000000
v 5.000000 -5.000000 -0.000000
v -5.000000 5.000000 0.000000
v 5.000000 5.000000 0.000000
v -5.000000 3.000000 0.000000
v -5.000000 1.000000 0.000000
v -5.000000 -1.000000 -0.000000
v -5.000000 -3.000000 -0.000000
v 5.000000 -3.000000 -0.000000
v 5.000000 -1.000000 -0.000000
v 5.000000 1.000000 0.000000
v 5.000000 3.000000 0.000000
v -5.000000 -0.600000 -0.300000
v -5.000000 -1.000000 -0.300000
v 5.000000 0.600000 -0.300000
v 5.000000 1.000000 -0.300000
v 5.000000 -1.000000 -0.300000
v -5.000000 1.000000 -0.300000
v -5.000000 0.600000 -0.300000
v -5.000000 0.200000 -0.300000
v -5.000000 -0.200000 -0.300000
v 5.000000 -0.600000 -0.300000
v 5.000000 -0.200000 -0.300000
v 5.000000 0.200000 -0.300000
vt 0.000000 0.800000
vt 1.000000 0.800000
vt 1.000000 1.000000
vt 0.000000 1.000000
vt 0.000000 0.000000
vt 1.000000 0.000000
vt 1.000000 0.200000
vt 0.000000 0.200000
vt 1.000000 0.400000
vt 0.000000 0.400000
vt 0.000000 0.600000
vt 1.000000 0.600000
vt 0.000000 0.600000
vt 1.000000 0.600000
vt 0.000000 0.560000
vt 1.000000 0.560000
vt 0.000000 0.400000
vt 1.000000 0.400000
vt 1.000000 0.440000
vt 0.000000 0.440000
vt 1.000000 0.480000
vt 0.000000 0.480000
vt 1.000000 0.520000
vt 0.000000 0.520000
vn 0.0000 -0.0000 1.0000
vn 0.0000 -1.0000 0.0000
vn 0.0000 1.0000 0.0000
usemtl Material
s off
f 5/1/1 12/2/1 4/3/1 3/4/1
f 1/5/1 2/6/1 9/7/1 8/8/1
f 8/8/1 9/7/1 10/9/1 7/10/1
f 6/11/1 11/12/1 12/2/1 5/1/1
f 11/12/2 6/11/2 18/13/2 16/14/2
f 19/15/1 15/16/1 16/14/1 18/13/1
f 14/17/1 17/18/1 22/19/1 13/20/1
f 13/20/1 22/19/1 23/21/1 21/22/1
f 21/22/1 23/21/1 24/23/1 20/24/1
f 20/24/1 24/23/1 15/16/1 19/15/1
f 7/10/3 10/9/3 17/18/3 14/17/3
